<?xml version="1.0" encoding="UTF-8"?>
<svg width="22px" height="25px" viewBox="0 0 22 25" version="1.1" xmlns="http://www.w3.org/2000/svg" xmlns:xlink="http://www.w3.org/1999/xlink">
    <!-- Generator: sketchtool 51.3 (57544) - http://www.bohemiancoding.com/sketch -->
    <title>15F315D5-646A-429F-8330-81416BD7989C</title>
    <desc>Created with sketchtool.</desc>
    <defs>
        <polygon id="path-1" points="0 4.1509434e-05 21.8546962 4.1509434e-05 21.8546962 24.1271925 0 24.1271925"></polygon>
    </defs>
    <g id="Updated-designs" stroke="none" stroke-width="1" fill="none" fill-rule="evenodd">
        <g id="Patient-+-Chat-page" transform="translate(-1178.000000, -635.000000)">
            <g id="Group-3" transform="translate(1178.000000, 635.000000)">
                <mask id="mask-2" fill="white">
                    <use xlink:href="#path-1"></use>
                </mask>
                <g id="Clip-2"></g>
                <path d="M10.066017,10.7613623 C10.3980925,10.4292868 10.3980925,9.88966415 10.066017,9.55758868 C9.73394151,9.22551321 9.19431887,9.22551321 8.8622434,9.55758868 L4.35846981,14.0611547 C3.59054528,14.8292868 3.17545094,15.8253057 3.17545094,16.9047585 C3.17545094,17.9840038 3.59054528,18.9802302 4.35846981,19.7481547 C5.9358283,21.3253057 8.48865849,21.3253057 10.0452623,19.7481547 L20.2150736,9.5783434 C21.2735642,8.51985283 21.8546962,7.10853208 21.8546962,5.61419245 C21.8546962,4.11985283 21.2735642,2.70853208 20.2150736,1.65004151 C18.0150736,-0.549958491 14.466017,-0.549958491 12.266017,1.65004151 L2.11696038,11.7990981 C0.747149057,13.1689094 -2.0754717e-05,14.9745698 -2.0754717e-05,16.9047585 C-2.0754717e-05,18.8347396 0.747149057,20.6613623 2.11696038,22.0104189 C3.4867717,23.3802302 5.29243208,24.1271925 7.22262075,24.1271925 C9.15280943,24.1271925 10.9792245,23.3802302 12.3282811,22.0104189 L16.8320547,17.5066453 C17.1641302,17.1743623 17.1641302,16.6349472 16.8320547,16.3028717 C16.4999792,15.9707962 15.9603566,15.9707962 15.6282811,16.3028717 L11.1245075,20.8064377 C10.0867717,21.8441736 8.69620566,22.4255132 7.22262075,22.4255132 C5.74903585,22.4255132 4.35846981,21.8441736 3.32073396,20.8064377 C2.28299811,19.7687019 1.70186604,18.3783434 1.70186604,16.9047585 C1.70186604,15.4311736 2.28299811,14.0406075 3.32073396,13.0028717 L13.4697906,2.85381509 C14.2169604,2.10664528 15.1924321,1.71230566 16.2301679,1.71230566 C17.2679038,1.71230566 18.2641302,2.1274 18.9905453,2.85381509 C19.7377151,3.60098491 20.1320547,4.5764566 20.1320547,5.61419245 C20.1320547,6.6519283 19.7169604,7.64815472 18.9905453,8.37456981 L8.82073396,18.5443811 C7.92828113,19.436834 6.45469623,19.436834 5.54148868,18.5443811 C5.10563962,18.1083245 4.85658302,17.5274 4.85658302,16.9047585 C4.85658302,16.282117 5.10563962,15.7009849 5.54148868,15.2651358 L10.066017,10.7613623 Z" id="Fill-1" fill="#C1C1C1" mask="url(#mask-2)"></path>
            </g>
        </g>
    </g>
</svg>