<?xml version="1.0" encoding="UTF-8"?>
<svg width="25px" height="24px" viewBox="0 0 25 24" version="1.1" xmlns="http://www.w3.org/2000/svg" xmlns:xlink="http://www.w3.org/1999/xlink">
    <!-- Generator: sketchtool 51.3 (57544) - http://www.bohemiancoding.com/sketch -->
    <title>34BD5831-4CFD-4CB0-B597-7FD69150733D</title>
    <desc>Created with sketchtool.</desc>
    <defs></defs>
    <g id="Updated-designs" stroke="none" stroke-width="1" fill="none" fill-rule="evenodd">
        <g id="Patient-+-Chat-page" transform="translate(-1209.000000, -634.000000)" fill="#38B9EA">
            <g id="Group-5" transform="translate(1209.000000, 634.000000)">
                <path d="M10.9677793,21.2758101 L5.00409218,16.8030447 C5.00409218,16.8030447 5.88048883,22.2103073 6.07252793,22.7165922 C6.26456704,23.2228771 6.84068436,24.0608659 7.62629888,23.554581 C8.41191341,23.0482961 10.9677793,21.2758101 10.9677793,21.2758101" id="Fill-1"></path>
                <path d="M23.4403631,0.079972067 L0.709078212,9.00734637 C-0.105167598,9.32703911 -0.252653631,10.4162849 0.447206704,10.9411453 L6.37234637,15.385 L23.949581,1.10357542 L8.47136872,16.9593017 L15.7062849,22.3855587 C16.3051676,22.834581 17.1677374,22.5792737 17.4255587,21.8763408 L24.897905,1.50469274 C25.2296089,0.600083799 24.3372905,-0.27226257 23.4403631,0.079972067" id="Fill-3"></path>
            </g>
        </g>
    </g>
</svg>